<?xml version="1.0" encoding="UTF-8" standalone="no"?>
<!-- Created with Inkscape (http://www.inkscape.org/) -->

<svg
   width="64"
   height="64"
   viewBox="0 0 64 64"
   version="1.1"
   id="svg1"
   xml:space="preserve"
   inkscape:version="1.4.2 (ebf0e940d0, 2025-05-08)"
   sodipodi:docname="icon.svg"
   xmlns:inkscape="http://www.inkscape.org/namespaces/inkscape"
   xmlns:sodipodi="http://sodipodi.sourceforge.net/DTD/sodipodi-0.dtd"
   xmlns="http://www.w3.org/2000/svg"
   xmlns:svg="http://www.w3.org/2000/svg"><sodipodi:namedview
     id="namedview1"
     pagecolor="#ffffff"
     bordercolor="#000000"
     borderopacity="0.25"
     inkscape:showpageshadow="2"
     inkscape:pageopacity="0.0"
     inkscape:pagecheckerboard="0"
     inkscape:deskcolor="#d1d1d1"
     inkscape:document-units="mm"
     inkscape:zoom="12.529722"
     inkscape:cx="34.39821"
     inkscape:cy="37.071853"
     inkscape:window-width="1830"
     inkscape:window-height="1040"
     inkscape:window-x="90"
     inkscape:window-y="0"
     inkscape:window-maximized="1"
     inkscape:current-layer="layer1" /><defs
     id="defs1" /><g
     inkscape:label="Layer 1"
     inkscape:groupmode="layer"
     id="layer1"
     transform="translate(-55.556488,-82.1848)"><path
       style="fill:#000000;stroke-width:0.323914;fill-opacity:1;stroke:none;stroke-opacity:1"
       d="m 90.081804,129.62047 c 1.284277,-0.43133 2.515441,-1.12831 3.484908,-1.97284 0.464222,-0.4044 0.495355,-0.41578 1.316709,-0.4814 4.369001,-0.34907 8.760219,-2.42067 11.571179,-5.45881 1.29101,-1.39536 1.50905,-1.87898 1.20473,-2.67215 -0.40379,-1.05243 -2.49825,-3.21487 -4.39331,-4.53593 -2.31993,-1.61722 -4.721665,-2.85728 -7.254903,-3.13673 -6.063531,-0.66888 -8.889268,0.86434 -11.822604,3.31984 -1.911199,-0.68384 -1.771664,-0.68807 -2.942464,-0.76829 -1.525616,-0.10452 -2.809424,0.73609 -3.445029,1.55758 l -0.296205,0.38282 -0.769362,-0.0627 c -0.423148,-0.0345 -1.155223,-0.0741 -1.626831,-0.088 l -0.857476,-0.0253 -0.06596,0.39914 c -0.09451,0.57167 0.03229,0.67291 0.845217,0.67487 0.830458,0.002 0.926207,0.0835 0.534325,0.45444 l -0.300406,0.28441 -2.031581,-0.0166 -2.031574,-0.0166 v 0.56898 0.56898 h 1.763174 c 1.653473,0 1.759576,0.0112 1.705347,0.17939 -0.03182,0.0987 -0.05941,0.34656 -0.06139,0.5509 l -0.0033,0.37152 -0.530296,0.0641 c -0.291667,0.0353 -1.056847,0.0641 -1.700405,0.0641 h -1.170102 l -0.04499,0.25626 c -0.02474,0.14095 -0.026,0.36428 -0.0026,0.49631 l 0.04208,0.24003 2.018978,0.0714 2.018972,0.0714 0.234421,0.278 c 0.128927,0.1529 0.236737,0.31259 0.239588,0.35487 0.0026,0.0423 -0.333392,0.0769 -0.747186,0.0769 h -0.752366 v 0.51253 0.51253 h 1.528059 1.528059 l 0.173709,0.26825 c 0.690429,1.0662 2.702505,1.98687 4.342232,1.98687 0.328035,0 0.596426,0.0228 0.596426,0.0507 0,0.0279 -0.163055,0.33926 -0.36234,0.69191 -0.49286,0.87212 -0.784113,1.51237 -0.784113,1.7237 0,0.0968 0.05643,0.27487 0.125393,0.3956 0.16904,0.29594 0.682612,0.36896 2.525783,0.35916 1.634548,-0.009 2.231876,-0.12427 3.640347,-0.70434 0.460893,-0.18981 0.848297,-0.33081 0.860899,-0.31332 0.01259,0.0175 -0.04125,0.21174 -0.119682,0.43166 -0.07843,0.21993 -0.183828,0.68543 -0.23422,1.03447 -0.08559,0.59281 -0.08194,0.65321 0.05547,0.91702 0.136857,0.26274 0.186505,0.28383 0.712885,0.30279 0.386012,0.0139 0.793445,-0.0561 1.282311,-0.22027 z m -7.614083,-2.6036 c -0.152021,-0.0625 -0.129671,-0.11972 0.358265,-0.91712 1.059644,-1.73169 2.32239,-3.13565 3.462016,-3.84919 l 0.569399,-0.3565 1.00315,0.14334 c 0.551729,0.0788 1.662016,0.17458 2.467301,0.21276 l 1.464152,0.0694 -0.647822,0.88961 c -1.102964,1.51464 -2.149164,2.38956 -3.71355,3.1056 -0.669823,0.30658 -1.131006,0.44534 -2.400389,0.72219 -0.305595,0.0666 -2.391316,0.0503 -2.562522,-0.0201 z m 8.596023,-1.09355 c -0.405757,-0.07 -0.752349,-0.14808 -0.770198,-0.17362 -0.01786,-0.0255 0.136056,-0.20264 0.342017,-0.39356 0.762027,-0.70638 2.129783,-2.79269 2.232436,-3.40525 0.03715,-0.22164 0.0086,-0.33987 -0.130019,-0.53815 -0.17671,-0.2528 -0.184883,-0.25414 -1.596032,-0.26132 -0.780126,-0.004 -1.579631,-0.028 -1.776678,-0.0534 -0.197047,-0.0253 -0.861559,-0.11709 -1.476697,-0.20377 -1.08424,-0.15279 -1.13084,-0.15137 -1.524593,0.0466 -0.378361,0.19024 -1.400203,0.95404 -1.729079,1.29244 -0.132808,0.13665 -0.172055,0.1151 -0.483151,-0.26531 -0.434459,-0.53127 -0.578871,-1.1673 -0.579433,-2.55196 -3.87e-4,-1.41675 0.225333,-2.45146 0.671396,-3.07517 0.777185,-1.0867 2.05174,-2.10292 3.509355,-2.79808 1.13408,-0.54086 2.252178,-0.87277 3.774717,-1.12054 1.274609,-0.20742 1.469575,-0.21465 2.687003,-0.0996 2.988508,0.28249 5.025494,0.96376 7.748452,2.59148 1.24398,0.74363 1.18493,0.64477 0.92558,1.54922 -0.33339,1.16268 -0.41127,1.75812 -0.40631,3.10642 0.005,1.34022 0.12383,2.17298 0.43614,3.05468 0.0987,0.27867 0.15277,0.54118 0.12012,0.58333 -0.0995,0.12844 -1.88334,1.09472 -2.5314,1.3712 -1.655139,0.70613 -3.271134,1.14996 -5.230696,1.43659 -0.601607,0.088 -3.540583,0.0236 -4.21293,-0.0923 z m -10.009426,-2.21418 c -0.760298,-0.30195 -1.326427,-2.14465 -1.326427,-4.31742 0,-1.50318 0.272679,-2.70291 0.85066,-3.74276 l 0.299129,-0.53815 h 0.428249 c 0.235546,0 0.428258,0.0175 0.428258,0.0388 0,0.0214 -0.114027,0.30966 -0.253391,0.64066 -0.322126,0.7651 -0.497923,1.58179 -0.606773,2.81893 -0.07241,0.82295 -0.06828,1.1547 0.02569,2.06642 0.121476,1.17859 0.443068,2.51407 0.69939,2.90439 l 0.16006,0.24374 -0.209533,-3.8e-4 c -0.115247,-3.2e-4 -0.338135,-0.0517 -0.495316,-0.11407 z m 1.432336,-0.41121 c -0.34858,-0.55197 -0.588263,-1.31636 -0.718801,-2.2924 -0.275922,-2.06305 0.02499,-4.17471 0.771146,-5.41158 l 0.234162,-0.38817 0.37618,0.1615 c 0.370375,0.159 0.454218,0.27747 0.295618,0.41769 -0.04431,0.0392 -0.171248,0.35736 -0.282094,0.70708 -0.58512,1.8461 -0.552255,4.4784 0.07939,6.35793 0.189349,0.56343 0.19673,0.62579 0.08798,0.74316 -0.246009,0.26554 -0.558512,0.15617 -0.843574,-0.29521 z m -3.564117,-0.37536 c -0.534927,-0.31038 -0.610995,-0.4267 -0.828692,-1.26716 -0.259938,-1.00354 -0.328391,-2.14903 -0.194429,-3.25357 0.217392,-1.79244 0.408031,-2.23743 1.120358,-2.61516 0.282042,-0.14955 0.524975,-0.2545 0.539852,-0.23321 0.01488,0.0213 -0.05146,0.24175 -0.147422,0.48993 -0.38768,1.00264 -0.599766,2.9549 -0.470574,4.33162 0.09937,1.05883 0.256967,1.94412 0.434942,2.44319 0.0766,0.21479 0.114433,0.3892 0.08407,0.38755 -0.03037,-0.001 -0.272503,-0.12908 -0.53811,-0.28319 z m -2.072751,-1.95841 C 76.548281,120.7753 75.572,119.50785 75.572,119.30529 c 0,-0.0554 0.04975,-0.12799 0.110529,-0.16137 0.0608,-0.0334 0.170917,-0.22796 0.244715,-0.43243 0.178902,-0.49565 0.619251,-1.08443 0.961178,-1.28517 0.36659,-0.21523 0.411193,-0.2063 0.338692,0.0677 -0.144468,0.54608 -0.224293,1.99661 -0.150726,2.73872 0.04062,0.40959 0.09144,0.78546 0.112963,0.83528 0.05577,0.12909 0.01006,0.1151 -0.339565,-0.1039 z m 26.393114,-1.3297 c -0.0667,-0.0605 -0.0801,-0.1981 -0.0451,-0.46447 0.0445,-0.33945 0.0617,-0.3634 0.16643,-0.23217 0.0642,0.0805 0.24577,0.2403 0.40341,0.35517 0.293,0.21352 0.27625,0.26968 -0.10748,0.36033 -0.30001,0.0709 -0.31924,0.07 -0.41722,-0.0189 z m -26.882717,5.26563 v -0.66628 H 75.894437 75.42869 v 0.66628 0.66629 h 0.465747 0.465746 z m -2.951847,-1.86605 -0.02686,-0.69659 h -0.499003 -0.499011 v 0.66629 0.66629 l 0.52591,0.0303 0.52591,0.0303 z m -3.353646,-2.49043 v -0.61504 H 69.660592 69.2665 v 0.61504 0.61503 h 0.394092 0.394098 z m -1.934548,-2.53702 9.9e-5,-0.5894 -0.394191,0.0351 -0.39419,0.0351 v 0.55429 0.5543 h 0.394091 0.394099 z m 2.579429,-1.61446 v -0.66628 h -0.429923 -0.429922 v 0.66628 0.66629 h 0.429922 0.429923 z m 2.722824,-1.48633 v -0.71754 h -0.501571 -0.501577 v 0.71754 0.71754 h 0.501577 0.501571 z m 2.651176,-1.74259 v -0.71754 h -0.429923 -0.429916 v 0.71754 0.71753 h 0.429916 0.429923 z"
       id="path1"
       sodipodi:nodetypes="cscsscscssccccscscccccsssccscsccccssscccccssscsscssssssccsssccscsssscsssccssssscsssssssscssccsscsssscsccccssscsscssssssssssscssscsssssscssscccccccccccccccccccccccccccccccccccccccccccccccccccccccccccccccccc" /><path
       d="m 101.62409,110.26768 v -2.57787 c 0,-2.88418 -0.0126,-2.94098 -0.69493,-3.13273 -0.56745,-0.15946 -4.201812,-0.90576 -4.763486,-0.97816 l -0.486901,-0.0628 v -1.7762 c 0,-1.53904 -0.02394,-1.805746 -0.179385,-1.997373 -0.388744,-0.479262 -4.62607,-1.307827 -6.173264,-1.207112 -1.402977,0.09132 -4.782124,0.83168 -5.076732,1.11229 -0.05638,0.05369 -0.125567,0.683645 -0.153756,1.399885 l -0.05125,1.30226 -1.076311,0.0673 c -1.010789,0.0632 -3.884192,0.58543 -4.491224,0.81623 -0.664807,0.25275 -0.63405,0.046 -0.63405,4.26227 v 3.83272 l 0.230637,0.22886 c 0.157963,0.15674 0.731295,0.3674 1.819473,0.66853 0.873863,0.24182 1.704064,0.47498 1.844892,0.51813 m 1.795607,-1.45046 c -0.03696,-0.40874 -0.05243,-2.01773 -0.03436,-3.57554 l 0.03281,-2.83238 -1.606549,-0.31967 c -0.883594,-0.17581 -1.711586,-0.31966 -1.83997,-0.31966 -0.141448,0 -0.195056,-0.0361 -0.136048,-0.0916 0.153703,-0.14465 2.908646,-0.65163 3.515086,-0.64686 0.76774,0.006 3.091397,0.34176 3.091397,0.44667 0,0.0477 -0.05766,0.0851 -0.128133,0.0829 -0.186075,-0.006 -2.639057,0.76268 -2.639309,0.82672 -1.16e-4,0.0297 1.003065,-0.0735 2.229288,-0.22933 1.22622,-0.15585 2.287789,-0.26209 2.359036,-0.23609 0.101536,0.037 0.123693,0.77294 0.102504,3.40468 l -0.02704,3.35741 -0.615037,0.13834 c -0.563441,0.12673 -3.838906,0.70601 -4.117102,0.72812 -0.07517,0.006 -0.144276,-0.26579 -0.186579,-0.73368 z m 11.73534,-3.0906 v -2.08887 l -1.665717,-0.31902 c -0.916142,-0.17546 -1.757968,-0.32034 -1.870723,-0.32197 -0.164857,-0.002 -0.174895,-0.0199 -0.05125,-0.0892 0.286061,-0.16048 3.026688,-0.62504 3.687418,-0.62504 0.699426,0 2.872934,0.30992 2.872934,0.40965 0,0.0327 -0.599655,0.23697 -1.332571,0.45384 -0.732915,0.21687 -1.332573,0.43303 -1.332573,0.48038 0,0.0474 0.126854,0.0635 0.281891,0.0359 0.15504,-0.0276 0.996863,-0.12169 1.870727,-0.20904 0.873857,-0.0874 1.854068,-0.18532 2.178244,-0.21772 l 0.5894,-0.0589 v 2.27313 2.27312 l -1.30694,-0.0592 c -1.09254,-0.0495 -2.279188,-0.008 -3.67004,0.12744 l -0.250798,0.0245 z m -5.519817,-5.44303 c 0.01968,-0.98664 0.02003,-1.79387 7.94e-4,-1.79385 -0.09376,1.2e-4 -3.65844,-0.63582 -3.679245,-0.65638 -0.03832,-0.0378 2.835829,-0.565049 3.468398,-0.636207 0.611104,-0.06874 3.167231,0.326907 3.167231,0.490237 0,0.0467 -0.103787,0.0846 -0.230637,0.0843 -0.309333,-8e-4 -2.505114,0.64334 -2.359056,0.69202 0.114205,0.0381 3.166189,-0.22743 3.999144,-0.3479 l 0.43565,-0.063 v 1.52752 1.52753 l -2.332001,0.47314 c -1.282602,0.26023 -2.371164,0.4784 -2.419026,0.48483 -0.04787,0.006 -0.07093,-0.79556 -0.05125,-1.7822 z"
       style="fill:#000000;stroke-width:0.387422"
       id="path1-6" /><path
       d="m 98.099415,119.85109 c 2.208965,-0.78341 2.415165,-3.96276 0.325672,-5.02157 -1.05348,-0.53385 -2.211985,-0.39514 -3.079795,0.36874 -0.645853,0.56851 -0.92472,1.17972 -0.932635,2.04411 -0.01786,1.94826 1.840781,3.2634 3.686758,2.60872 z m -0.301326,-3.98406 c -0.206199,-0.0978 -0.349522,-0.21897 -0.318507,-0.26916 0.181363,-0.29346 1.015903,0.1658 1.229286,0.67648 0.219569,0.52552 0.182455,0.55261 -0.194634,0.14208 -0.187682,-0.20432 -0.509947,-0.45155 -0.716145,-0.5494 z"
       style="fill:#000000;stroke-width:0.387422"
       id="path1-2" /><path
       style="fill:none;stroke:#000000;stroke-width:1.33041;stroke-linecap:round;stroke-linejoin:round;stroke-dasharray:none"
       d="m 92.103368,111.47421 -15.014311,1.91359 0.147206,-12.46286"
       id="path2" /></g></svg>
