<?xml version="1.0" encoding="UTF-8" standalone="no"?>
<!-- Created with Inkscape (http://www.inkscape.org/) -->

<svg
   width="64"
   height="64"
   viewBox="0 0 64 64"
   version="1.1"
   id="svg1"
   xml:space="preserve"
   inkscape:version="1.4.2 (ebf0e940d0, 2025-05-08)"
   sodipodi:docname="icon.svg"
   xmlns:inkscape="http://www.inkscape.org/namespaces/inkscape"
   xmlns:sodipodi="http://sodipodi.sourceforge.net/DTD/sodipodi-0.dtd"
   xmlns="http://www.w3.org/2000/svg"
   xmlns:svg="http://www.w3.org/2000/svg"><sodipodi:namedview
     id="namedview1"
     pagecolor="#ffffff"
     bordercolor="#000000"
     borderopacity="0.25"
     inkscape:showpageshadow="2"
     inkscape:pageopacity="0.0"
     inkscape:pagecheckerboard="0"
     inkscape:deskcolor="#d1d1d1"
     inkscape:document-units="mm"
     inkscape:zoom="8.1347748"
     inkscape:cx="23.479445"
     inkscape:cy="38.538252"
     inkscape:window-width="1830"
     inkscape:window-height="1040"
     inkscape:window-x="90"
     inkscape:window-y="0"
     inkscape:window-maximized="1"
     inkscape:current-layer="layer1" /><defs
     id="defs1" /><g
     inkscape:label="Layer 1"
     inkscape:groupmode="layer"
     id="layer1"
     transform="translate(-55.556488,-82.1848)"><path
       style="fill:#000000;fill-opacity:1;stroke:none;stroke-width:0.477481;stroke-opacity:1"
       d="m 91.279054,136.93849 c 1.893151,-0.63583 3.708008,-1.66324 5.137097,-2.90816 0.684309,-0.59613 0.730203,-0.6129 1.940959,-0.70963 6.44034,-0.51457 12.91343,-3.56831 17.05706,-8.04683 1.90307,-2.0569 2.22449,-2.7698 1.77589,-3.93901 -0.59523,-1.55139 -3.68267,-4.73903 -6.47617,-6.68641 -3.41981,-2.38394 -6.9602,-4.21191 -10.69444,-4.62385 -8.938247,-0.98599 -13.103661,1.27413 -17.427688,4.89377 -2.817295,-1.00804 -2.611607,-1.01428 -4.337481,-1.13253 -2.248909,-0.15407 -4.141368,1.08507 -5.078312,2.29603 l -0.436636,0.56431 -1.134115,-0.0924 c -0.623762,-0.0508 -1.702913,-0.10923 -2.398109,-0.12972 l -1.264004,-0.0373 -0.09723,0.58837 c -0.139317,0.8427 0.0476,0.99194 1.245933,0.99483 1.224177,0.003 1.365321,0.12308 0.787648,0.66988 l -0.442828,0.41925 -2.994751,-0.0245 -2.99474,-0.0245 v 0.83874 0.83873 h 2.599092 c 2.437382,0 2.593789,0.0165 2.51385,0.26444 -0.04691,0.14549 -0.08758,0.51086 -0.0905,0.81208 l -0.0049,0.54765 -0.781708,0.0945 c -0.429946,0.052 -1.557897,0.0945 -2.506565,0.0945 h -1.724845 l -0.06632,0.37776 c -0.03647,0.20777 -0.03833,0.53698 -0.0038,0.73161 l 0.06203,0.35382 2.976173,0.10525 2.976163,0.10526 0.34556,0.40979 c 0.190051,0.22539 0.348974,0.46079 0.353176,0.52312 0.0038,0.0623 -0.491452,0.11336 -1.101425,0.11336 h -1.109062 v 0.75552 0.75552 h 2.25251 2.252509 l 0.256064,0.39542 c 1.017761,1.57169 3.983759,2.92884 6.400878,2.92884 0.483556,0 0.879191,0.0336 0.879191,0.0747 0,0.0411 -0.24036,0.5001 -0.534125,1.01995 -0.726525,1.28559 -1.15586,2.22938 -1.15586,2.5409 0,0.14269 0.08318,0.40518 0.184842,0.58315 0.249181,0.43625 1.006237,0.54389 3.723252,0.52944 2.409485,-0.0133 3.290006,-0.18319 5.366231,-1.03827 0.679401,-0.2798 1.250473,-0.48764 1.269049,-0.46186 0.01856,0.0258 -0.06081,0.31212 -0.176423,0.63631 -0.115613,0.3242 -0.27098,1.01039 -0.345263,1.52491 -0.126168,0.87386 -0.120788,0.96289 0.08177,1.35178 0.201741,0.3873 0.274927,0.41839 1.050863,0.44634 0.56902,0.0205 1.169616,-0.0827 1.890253,-0.3247 z m -11.223909,-3.83797 c -0.224093,-0.0921 -0.191147,-0.17647 0.528118,-1.35192 1.56202,-2.55268 3.423432,-4.62226 5.103353,-5.67409 l 0.83935,-0.52551 1.478742,0.2113 c 0.813303,0.11615 2.449975,0.25734 3.637045,0.31362 l 2.158304,0.10231 -0.954953,1.31137 c -1.625878,2.23273 -3.16808,3.52245 -5.474139,4.57796 -0.987385,0.45193 -1.667214,0.65648 -3.53841,1.06458 -0.450477,0.0982 -3.525035,0.0741 -3.77741,-0.0296 z m 12.671385,-1.612 c -0.598126,-0.10318 -1.109036,-0.21828 -1.135348,-0.25593 -0.02633,-0.0376 0.20056,-0.29871 0.504167,-0.58014 1.123303,-1.04128 3.13951,-4.11671 3.290831,-5.01968 0.05476,-0.32672 0.01268,-0.501 -0.191661,-0.79328 -0.260488,-0.37266 -0.272536,-0.37463 -2.352709,-0.38522 -1.149982,-0.006 -2.328531,-0.0413 -2.618998,-0.0787 -0.290467,-0.0373 -1.270023,-0.17261 -2.176797,-0.30038 -1.598276,-0.22523 -1.666969,-0.22313 -2.2474,0.0687 -0.557741,0.28044 -2.064037,1.40635 -2.548833,1.90519 -0.195772,0.20143 -0.253626,0.16967 -0.712212,-0.3911 -0.640435,-0.78314 -0.853313,-1.72071 -0.854141,-3.76184 -5.71e-4,-2.08843 0.332163,-3.61369 0.989704,-4.5331 1.145647,-1.6019 3.024466,-3.09991 5.173135,-4.12465 1.671745,-0.79728 3.319932,-1.28654 5.564304,-1.65178 1.878899,-0.30576 2.166299,-0.31642 3.960907,-0.14682 4.405351,0.41642 7.408071,1.42067 11.421981,3.82009 1.83375,1.09619 1.7467,0.95046 1.3644,2.28371 -0.49145,1.7139 -0.60626,2.59164 -0.59894,4.57917 0.007,1.97561 0.18253,3.20318 0.64291,4.5029 0.14549,0.41078 0.2252,0.79775 0.17707,0.85988 -0.14667,0.18933 -2.77623,1.61373 -3.73153,2.02129 -2.43984,1.0409 -4.82198,1.69515 -7.710566,2.11767 -0.886828,0.12972 -5.219168,0.0348 -6.210274,-0.13606 z M 77.97165,128.2246 c -1.120754,-0.4451 -1.955284,-3.16142 -1.955284,-6.3643 0,-2.21583 0.401956,-3.98435 1.253957,-5.51719 l 0.440945,-0.79329 h 0.631282 c 0.347218,0 0.631294,0.0258 0.631294,0.0572 0,0.0315 -0.168087,0.45647 -0.373523,0.9444 -0.474846,1.12783 -0.733988,2.33171 -0.894443,4.15538 -0.10674,1.21311 -0.100652,1.70214 0.03787,3.04611 0.179068,1.73736 0.653126,3.70598 1.03097,4.28135 l 0.235944,0.3593 -0.308872,-5.6e-4 c -0.169886,-4.7e-4 -0.498444,-0.0762 -0.730145,-0.16815 z m 2.111405,-0.60616 c -0.513842,-0.81366 -0.867158,-1.94044 -1.059584,-3.37922 -0.406736,-3.04114 0.03684,-6.15394 1.136745,-7.9772 l 0.345178,-0.57221 0.554526,0.23807 c 0.54597,0.23438 0.669563,0.40902 0.435771,0.61572 -0.06532,0.0578 -0.252437,0.52678 -0.415835,1.0423 -0.862524,2.72134 -0.814078,6.60161 0.117029,9.37222 0.279119,0.83055 0.289999,0.92247 0.129691,1.09549 -0.362641,0.39143 -0.823302,0.23021 -1.243511,-0.43517 z m -5.25386,-0.55332 c -0.788535,-0.45753 -0.900667,-0.62899 -1.221574,-1.86792 -0.383174,-1.47931 -0.48408,-3.16788 -0.286607,-4.79608 0.320457,-2.64223 0.601478,-3.29819 1.651518,-3.855 0.415758,-0.22045 0.773865,-0.37516 0.795795,-0.34378 0.02193,0.0314 -0.07586,0.35637 -0.217315,0.72221 -0.571478,1.47799 -0.884114,4.35581 -0.693672,6.38523 0.146481,1.56082 0.378795,2.86583 0.641147,3.60151 0.112916,0.31662 0.168686,0.57372 0.123928,0.57128 -0.04477,-10e-4 -0.401696,-0.19027 -0.793227,-0.41745 z m -3.055439,-2.88689 c -0.444448,-0.27839 -1.883583,-2.14674 -1.883583,-2.44533 0,-0.0817 0.07334,-0.18867 0.162931,-0.23788 0.08962,-0.0492 0.251949,-0.33603 0.360734,-0.63744 0.263719,-0.73064 0.912837,-1.59856 1.416871,-1.89447 0.54039,-0.31727 0.606139,-0.30411 0.499266,0.0998 -0.212961,0.80497 -0.33063,2.9432 -0.222185,4.03714 0.05988,0.60377 0.134791,1.15784 0.166518,1.23128 0.08221,0.1903 0.01483,0.16967 -0.500552,-0.15315 z m 38.906054,-1.9601 c -0.0983,-0.0892 -0.11808,-0.29202 -0.0665,-0.68468 0.0656,-0.50038 0.091,-0.53569 0.24534,-0.34224 0.0946,0.11866 0.36229,0.35423 0.59466,0.52355 0.43191,0.31475 0.40722,0.39754 -0.15843,0.53117 -0.44225,0.10451 -0.47059,0.10318 -0.61503,-0.0279 z m -39.627777,7.76205 v -0.98216 H 70.365477 69.67892 v 0.98216 0.98218 h 0.686557 0.686556 z m -4.351313,-2.75074 -0.0396,-1.02684 h -0.735579 -0.735592 v 0.98218 0.98217 l 0.775244,0.0447 0.775243,0.0447 z m -4.943605,-3.67114 v -0.90663 h -0.580939 -0.580931 v 0.90663 0.90662 h 0.580931 0.580939 z m -2.851714,-3.73982 1.46e-4,-0.86883 -0.581077,0.0517 -0.581075,0.0517 v 0.81708 0.81709 h 0.580929 0.580941 z m 3.802332,-2.37987 v -0.98216 h -0.633749 -0.633747 v 0.98216 0.98218 h 0.633747 0.633749 z m 4.013711,-2.191 v -1.05772 h -0.739365 -0.739374 v 1.05772 1.05773 h 0.739374 0.739365 z m 3.908095,-2.56874 v -1.05773 H 69.99579 69.362051 v 1.05773 1.05771 h 0.633739 0.633749 z"
       id="path1"
       sodipodi:nodetypes="cscsscscssccccscscccccsssccscsccccssscccccssscsscssssssccsssccscsssscsssccssssscsssssssscssccsscsssscsccccssscsscssssssssssscssscsssssscssscccccccccccccccccccccccccccccccccccccccccccccccccccccccccccccccccc" /><path
       d="m 108.29352,108.41057 v -3.80004 c 0,-4.25156 -0.0186,-4.33529 -1.02439,-4.617948 -0.83648,-0.23506 -6.19389,-1.33518 -7.02185,-1.441904 l -0.717743,-0.09257 v -2.618293 c 0,-2.268697 -0.03529,-2.661848 -0.264431,-2.944325 -0.573047,-0.706479 -6.819283,-1.927866 -9.099999,-1.779402 -2.068126,0.134615 -7.049322,1.225978 -7.483603,1.639625 -0.08311,0.07914 -0.185098,1.00776 -0.226651,2.063568 l -0.07555,1.91966 -1.586588,0.09921 c -1.490003,0.09316 -5.725682,0.862981 -6.620507,1.203203 -0.979991,0.372579 -0.934652,0.06781 -0.934652,6.283006 v 5.64981 l 0.339981,0.33736 c 0.232854,0.23105 1.078001,0.54159 2.682083,0.98548 1.28816,0.35647 2.511958,0.70017 2.719552,0.76378 m 2.646902,-2.13813 c -0.05448,-0.60252 -0.07729,-2.97433 -0.05065,-5.27069 l 0.04837,-4.17521 -2.368211,-0.47123 c -1.302505,-0.25916 -2.523047,-0.471209 -2.712297,-0.471209 -0.208509,0 -0.287532,-0.05321 -0.200548,-0.135027 0.226573,-0.213229 4.28763,-0.960567 5.181583,-0.953536 1.131724,0.0088 4.557023,0.503788 4.557023,0.658436 0,0.07032 -0.085,0.125446 -0.18888,0.122203 -0.274293,-0.0088 -3.89023,1.124273 -3.890602,1.218673 -1.71e-4,0.0438 1.478617,-0.10835 3.28619,-0.33806 1.807569,-0.22974 3.372427,-0.386348 3.477452,-0.348021 0.149674,0.05454 0.182335,1.139391 0.151101,5.018841 l -0.03986,4.94915 -0.906625,0.20393 c -0.830568,0.18681 -5.658926,1.04072 -6.069014,1.07332 -0.110808,0.009 -0.212677,-0.3918 -0.275036,-1.08152 z m 17.299047,-4.55584 v -3.0792 l -2.455431,-0.47027 c -1.350483,-0.25865 -2.591418,-0.47221 -2.75763,-0.47462 -0.243015,-0.003 -0.257812,-0.0293 -0.07555,-0.13149 0.421682,-0.23656 4.461636,-0.92137 5.435617,-0.92137 1.031013,0 4.234983,0.45686 4.234983,0.60387 0,0.0482 -0.88395,0.34931 -1.96434,0.669 -1.08039,0.31969 -1.96434,0.63833 -1.96434,0.70813 0,0.0699 0.186995,0.0936 0.415535,0.0529 0.228535,-0.0407 1.469465,-0.17938 2.757635,-0.30815 1.28815,-0.12883 2.73307,-0.27318 3.21094,-0.32094 l 0.86884,-0.0868 v 3.35082 3.3508 l -1.92656,-0.0873 c -1.61051,-0.073 -3.35975,-0.0118 -5.409998,0.18786 l -0.369701,0.0361 z m -8.136754,-8.023569 c 0.02901,-1.454405 0.02953,-2.644341 0.0012,-2.644312 -0.138212,1.77e-4 -5.392901,-0.937261 -5.42357,-0.967569 -0.05649,-0.05572 4.180291,-0.832938 5.11276,-0.937831 0.900828,-0.10133 4.668811,0.481893 4.668811,0.722657 0,0.06884 -0.152992,0.124709 -0.339982,0.124267 -0.455987,-0.0012 -3.692785,0.948346 -3.477481,1.020105 0.16835,0.05616 4.667275,-0.335254 5.895132,-0.512839 l 0.642191,-0.09287 v 2.251715 2.25173 l -3.437599,0.697455 c -1.890681,0.383604 -3.495329,0.705209 -3.565882,0.714687 -0.07056,0.0088 -0.104558,-1.172734 -0.07555,-2.627138 z"
       style="fill:#000000;stroke-width:0.571098"
       id="path1-6" /><path
       d="m 103.0978,122.53746 c 3.25623,-1.15482 3.56019,-5.8415 0.48007,-7.40229 -1.55293,-0.78695 -3.26068,-0.58247 -4.539916,0.54356 -0.952051,0.83804 -1.363129,1.73902 -1.374796,3.01322 -0.02633,2.87193 2.713492,4.81057 5.434642,3.84551 z m -0.44418,-5.8729 c -0.30396,-0.14416 -0.51523,-0.32278 -0.46951,-0.39677 0.26734,-0.43259 1.49754,0.24441 1.81209,0.9972 0.32366,0.77467 0.26895,0.8146 -0.28691,0.20944 -0.27667,-0.30119 -0.75172,-0.66563 -1.05567,-0.80987 z"
       style="fill:#000000;stroke-width:0.571098"
       id="path1-2" /><path
       style="fill:none;stroke:#000000;stroke-width:1.96116;stroke-linecap:round;stroke-linejoin:round;stroke-dasharray:none"
       d="m 94.259038,110.18911 -22.132573,2.82082 0.216996,-18.37148"
       id="path2" /></g></svg>
